<svg width="100" height="21" viewBox="0 0 100 21" fill="none" xmlns="http://www.w3.org/2000/svg">
<g clip-path="url(#clip0_374_1707)">
<path d="M9.09993 2.88975C9.50177 2.1999 10.4984 2.1999 10.9002 2.88975L13.2294 6.8887L17.7523 7.86813C18.5326 8.03709 18.8406 8.98492 18.3087 9.58026L15.2252 13.0312L15.6913 17.6354C15.7718 18.4297 14.9655 19.0155 14.2349 18.6936L10.0001 16.8274L5.76523 18.6936C5.03468 19.0155 4.22839 18.4297 4.30882 17.6354L4.77499 13.0312L1.69153 9.58026C1.1596 8.98492 1.46758 8.03709 2.24783 7.86813L6.7708 6.8887L9.09993 2.88975Z" fill="#B9B9B9"/>
</g>
<g clip-path="url(#clip1_374_1707)">
<path d="M29.0999 2.88975C29.5018 2.1999 30.4984 2.1999 30.9002 2.88975L33.2294 6.8887L37.7523 7.86813C38.5326 8.03709 38.8406 8.98492 38.3087 9.58026L35.2252 13.0312L35.6913 17.6354C35.7718 18.4297 34.9655 19.0155 34.2349 18.6936L30.0001 16.8274L25.7652 18.6936C25.0347 19.0155 24.2284 18.4297 24.3088 17.6354L24.775 13.0312L21.6915 9.58026C21.1596 8.98492 21.4676 8.03709 22.2478 7.86813L26.7708 6.8887L29.0999 2.88975Z" fill="#B9B9B9"/>
</g>
<g clip-path="url(#clip2_374_1707)">
<path d="M49.0999 2.88975C49.5018 2.1999 50.4984 2.1999 50.9002 2.88975L53.2294 6.8887L57.7523 7.86813C58.5326 8.03709 58.8406 8.98492 58.3087 9.58026L55.2252 13.0312L55.6913 17.6354C55.7718 18.4297 54.9655 19.0155 54.2349 18.6936L50.0001 16.8274L45.7652 18.6936C45.0347 19.0155 44.2284 18.4297 44.3088 17.6354L44.775 13.0312L41.6915 9.58026C41.1596 8.98492 41.4676 8.03709 42.2478 7.86813L46.7708 6.8887L49.0999 2.88975Z" fill="#B9B9B9"/>
</g>
<g clip-path="url(#clip3_374_1707)">
<path d="M69.0999 2.88975C69.5018 2.1999 70.4984 2.1999 70.9002 2.88975L73.2294 6.8887L77.7523 7.86813C78.5326 8.03709 78.8406 8.98492 78.3087 9.58026L75.2252 13.0312L75.6913 17.6354C75.7718 18.4297 74.9655 19.0155 74.2349 18.6936L70.0001 16.8274L65.7652 18.6936C65.0347 19.0155 64.2284 18.4297 64.3088 17.6354L64.775 13.0312L61.6915 9.58026C61.1596 8.98492 61.4676 8.03709 62.2478 7.86813L66.7708 6.8887L69.0999 2.88975Z" fill="#B9B9B9"/>
</g>
<g clip-path="url(#clip4_374_1707)">
<path d="M89.0999 2.88975C89.5018 2.1999 90.4984 2.1999 90.9002 2.88975L93.2294 6.8887L97.7523 7.86813C98.5326 8.03709 98.8406 8.98492 98.3087 9.58026L95.2252 13.0312L95.6913 17.6354C95.7718 18.4297 94.9655 19.0155 94.2349 18.6936L90.0001 16.8274L85.7652 18.6936C85.0347 19.0155 84.2284 18.4297 84.3088 17.6354L84.775 13.0312L81.6915 9.58026C81.1596 8.98492 81.4676 8.03709 82.2478 7.86813L86.7708 6.8887L89.0999 2.88975Z" fill="#B9B9B9"/>
</g>
<defs>
<clipPath id="clip0_374_1707">
<rect width="20" height="20" fill="white" transform="translate(0 0.5)"/>
</clipPath>
<clipPath id="clip1_374_1707">
<rect width="20" height="20" fill="white" transform="translate(20 0.5)"/>
</clipPath>
<clipPath id="clip2_374_1707">
<rect width="20" height="20" fill="white" transform="translate(40 0.5)"/>
</clipPath>
<clipPath id="clip3_374_1707">
<rect width="20" height="20" fill="white" transform="translate(60 0.5)"/>
</clipPath>
<clipPath id="clip4_374_1707">
<rect width="20" height="20" fill="white" transform="translate(80 0.5)"/>
</clipPath>
</defs>
</svg>
