<svg width="24" height="24" viewBox="0 0 24 24" fill="none" xmlns="http://www.w3.org/2000/svg">
<g clip-path="url(#clip0_321_83)">
<path d="M12.6209 22.7001L12.4938 22.7637L12.3667 22.7001C12.3667 22.7001 12.3667 22.7001 12.3667 22.7001C12.1404 22.587 11.8882 22.6564 11.7424 22.8199L11.6855 22.8837L11.6531 22.9628L11.6474 22.9767L11.6154 23.0547L11.6107 23.1388L11.5906 23.5H0.5V0.5H23.5V23.5H13.397L13.3769 23.1388L13.3749 23.1033L13.368 23.0684C13.3312 22.8848 13.1874 22.6989 12.9518 22.6541L12.8693 22.6384L12.7862 22.6505L12.7724 22.6525L12.6928 22.6642L12.6209 22.7001Z" stroke="#F9F8F3"/>
<path d="M5.89603 5.0178L5.91261 5.25H6.1454H19.8018C20.8936 5.25 21.7188 6.23882 21.5235 7.31305L19.8872 16.3131C19.7359 17.1452 19.0112 17.75 18.1654 17.75H6.93112C6.013 17.75 5.25098 17.0405 5.18556 16.1247L4.38458 4.91094C4.33786 4.25681 3.79356 3.75 3.13776 3.75H3C2.58579 3.75 2.25 3.41421 2.25 3C2.25 2.58579 2.58579 2.25 3 2.25H3.13776C4.58052 2.25 5.77798 3.36497 5.88077 4.80406C5.88077 4.80407 5.88078 4.80407 5.88078 4.80407L5.89603 5.0178ZM20.0478 7.04472L20.1014 6.75H19.8018H6.28826H6.01977L6.0389 7.01781L6.68176 16.0178L6.69834 16.25H6.93112H18.1654H18.374L18.4114 16.0447L20.0478 7.04472ZM7.5 19.25C8.19036 19.25 8.75 19.8097 8.75 20.5C8.75 21.1903 8.19036 21.75 7.5 21.75C6.80964 21.75 6.25 21.1903 6.25 20.5C6.25 19.8097 6.80964 19.25 7.5 19.25ZM17.5 19.25C18.1903 19.25 18.75 19.8097 18.75 20.5C18.75 21.1903 18.1903 21.75 17.5 21.75C16.8097 21.75 16.25 21.1903 16.25 20.5C16.25 19.8097 16.8097 19.25 17.5 19.25Z" fill="#303030" stroke="#F9F8F3" stroke-width="0.5"/>
</g>
<defs>
<clipPath id="clip0_321_83">
<rect width="24" height="24" fill="white"/>
</clipPath>
</defs>
</svg>
