<svg width="25" height="25" viewBox="0 0 25 25" fill="none" xmlns="http://www.w3.org/2000/svg">
<g clip-path="url(#clip0_374_1789)">
<path d="M13.2716 23.4219L13.0892 23.5095L13.0838 23.5102L13.0718 23.5119L13.0331 23.5173L13.0144 23.5263L13.0139 23.526L12.996 23.5205C12.9783 23.5151 12.9594 23.5113 12.9398 23.5096L12.7572 23.4219C12.6432 23.3672 12.5148 23.399 12.4373 23.4825L12.4077 23.5143L12.3906 23.5543L12.3846 23.5683L12.3674 23.6085L12.3649 23.6521L12.3303 24.25H0.25V0.75H24.75V24.25H13.6984L13.6638 23.6521L13.6628 23.6336L13.659 23.6155C13.6376 23.5127 13.557 23.4209 13.439 23.3993L13.3994 23.3921L13.3595 23.3977L13.3451 23.3997L13.3066 23.4051L13.2716 23.4219Z" stroke="#F9F8F3" stroke-width="0.5"/>
<path d="M13.2913 20.4382V20.7199L13.5711 20.6864C17.7979 20.1804 21.083 16.7157 21.083 12.5001C21.083 7.93422 17.2304 4.25009 12.4997 4.25009C7.76895 4.25009 3.91634 7.93422 3.91634 12.5001C3.91634 16.7157 7.20145 20.1804 11.4283 20.6864L11.708 20.7199V20.4382V14.5001V14.2501H11.458H9.37467C8.92773 14.2501 8.58301 13.9048 8.58301 13.5001C8.58301 13.0954 8.92773 12.7501 9.37467 12.7501H11.458H11.708V12.5001V10.5001C11.708 8.99083 12.9854 7.75009 14.583 7.75009H15.1038C15.5508 7.75009 15.8955 8.0954 15.8955 8.50009C15.8955 8.90478 15.5508 9.25009 15.1038 9.25009H14.583C13.8793 9.25009 13.2913 9.80022 13.2913 10.5001V12.5001V12.7501H13.5413H15.6247C16.0716 12.7501 16.4163 13.0954 16.4163 13.5001C16.4163 13.9048 16.0716 14.2501 15.6247 14.2501H13.5413H13.2913V14.5001V20.4382ZM22.6663 12.5001C22.6663 17.8753 18.1242 22.2501 12.4997 22.2501C6.87506 22.2501 2.33301 17.8753 2.33301 12.5001C2.33301 7.12483 6.87506 2.75009 12.4997 2.75009C18.1242 2.75009 22.6663 7.12483 22.6663 12.5001Z" fill="#878787" stroke="#F9F8F3" stroke-width="0.5"/>
</g>
<defs>
<clipPath id="clip0_374_1789">
<rect width="25" height="24" fill="white" transform="translate(0 0.5)"/>
</clipPath>
</defs>
</svg>
