<svg width="25" height="25" viewBox="0 0 25 25" fill="none" xmlns="http://www.w3.org/2000/svg">
<g clip-path="url(#clip0_374_1795)">
<path d="M13.2716 23.4219L13.0892 23.5095L13.0838 23.5102L13.0718 23.5119L13.0331 23.5173L13.0144 23.5263L13.0139 23.526L12.996 23.5205C12.9783 23.5151 12.9594 23.5113 12.9398 23.5096L12.7572 23.4219C12.6432 23.3672 12.5148 23.399 12.4373 23.4825L12.4077 23.5143L12.3906 23.5543L12.3846 23.5683L12.3674 23.6085L12.3649 23.6521L12.3303 24.25H0.25V0.75H24.75V24.25H13.6984L13.6638 23.6521L13.6628 23.6336L13.659 23.6155C13.6376 23.5127 13.557 23.4209 13.439 23.3993L13.3994 23.3921L13.3595 23.3977L13.3451 23.3997L13.3066 23.4051L13.2716 23.4219Z" stroke="#F9F8F3" stroke-width="0.5"/>
<path d="M16.6667 3.75C19.4148 3.75 21.625 5.88617 21.625 8.5V16.5C21.625 19.1138 19.4148 21.25 16.6667 21.25H8.33333C5.58521 21.25 3.375 19.1138 3.375 16.5V8.5C3.375 5.88617 5.58521 3.75 8.33333 3.75H16.6667ZM16.6667 5.25H8.33333C6.47909 5.25 4.95833 6.69556 4.95833 8.5V16.5C4.95833 18.3045 6.4791 19.75 8.33333 19.75H16.6667C18.521 19.75 20.0417 18.3045 20.0417 16.5V8.5C20.0417 6.69556 18.521 5.25 16.6667 5.25ZM12.5 8.75C14.6728 8.75 16.4167 10.4385 16.4167 12.5C16.4167 14.5615 14.6728 16.25 12.5 16.25C10.3272 16.25 8.58333 14.5615 8.58333 12.5C8.58333 10.4385 10.3272 8.75 12.5 8.75ZM12.5 10.25C11.221 10.25 10.1667 11.2478 10.1667 12.5C10.1667 13.7522 11.221 14.75 12.5 14.75C13.779 14.75 14.8333 13.7522 14.8333 12.5C14.8333 11.2478 13.779 10.25 12.5 10.25ZM17.1875 7.25C17.6345 7.25 17.9792 7.59531 17.9792 8C17.9792 8.40469 17.6345 8.75 17.1875 8.75C16.7405 8.75 16.3958 8.40469 16.3958 8C16.3958 7.59531 16.7405 7.25 17.1875 7.25Z" fill="#878787" stroke="#F9F8F3" stroke-width="0.5"/>
</g>
<defs>
<clipPath id="clip0_374_1795">
<rect width="25" height="24" fill="white" transform="translate(0 0.5)"/>
</clipPath>
</defs>
</svg>
