<svg width="25" height="25" viewBox="0 0 25 25" fill="none" xmlns="http://www.w3.org/2000/svg">
<g clip-path="url(#clip0_374_1783)">
<path d="M13.2716 23.4219L13.0892 23.5095L13.0838 23.5102L13.0718 23.5119L13.0331 23.5173L13.0144 23.5263L13.0139 23.526L12.996 23.5205C12.9783 23.5151 12.9594 23.5113 12.9398 23.5096L12.7572 23.4219C12.6432 23.3672 12.5148 23.399 12.4373 23.4825L12.4077 23.5143L12.3906 23.5543L12.3846 23.5683L12.3674 23.6085L12.3649 23.6521L12.3303 24.25H0.25V0.75H24.75V24.25H13.6984L13.6638 23.6521L13.6628 23.6336L13.659 23.6155C13.6376 23.5127 13.557 23.4209 13.439 23.3993L13.3994 23.3921L13.3595 23.3977L13.3451 23.3997L13.3066 23.4051L13.2716 23.4219Z" stroke="#F9F8F3" stroke-width="0.5"/>
<path d="M10.1995 20.454L10.2528 20.2134L11.0005 16.8388L11.0893 16.438L11.4046 16.7009C12.0639 17.2503 12.8901 17.4653 13.6972 17.4511C14.5839 17.4355 15.481 17.1469 16.2335 16.6923C16.9849 16.2384 17.6444 15.5871 18.002 14.7962L18.0022 14.7957C18.3225 14.0913 18.4997 13.3145 18.4997 12.5001C18.4997 9.33397 15.8231 6.75009 12.4997 6.75009C9.17625 6.75009 6.49967 9.33397 6.49967 12.5001C6.49967 13.3149 6.67701 14.0922 6.99773 14.7969C7.1695 15.1744 7.63674 15.3572 8.04509 15.1859C8.44859 15.0166 8.62082 14.5748 8.45172 14.2032C8.21494 13.683 8.08301 13.1074 8.08301 12.5001C8.08301 10.1434 10.0701 8.25009 12.4997 8.25009C14.9292 8.25009 16.9163 10.1434 16.9163 12.5001C16.9163 13.66 16.4619 14.7755 15.3826 15.4275C14.8409 15.7547 14.2242 15.9416 13.6678 15.9514M10.1995 20.454L13.6634 15.7014M10.1995 20.454L10.4392 20.5108M10.1995 20.454L10.4392 20.5108M13.6678 15.9514L13.6634 15.7014M13.6678 15.9514C13.6678 15.9514 13.6678 15.9514 13.6679 15.9514L13.6634 15.7014M13.6678 15.9514C13.1196 15.9611 12.6668 15.802 12.3452 15.4783L12.3452 15.4782C12.0324 15.1632 11.7298 14.5944 11.7298 13.6C11.7298 13.2657 11.7968 12.9644 11.8929 12.5998C11.9152 12.5154 11.9391 12.4273 11.9645 12.3338C12.0496 12.0203 12.151 11.6467 12.2602 11.154L12.5043 11.2081M13.6634 15.7014C13.1669 15.7102 12.7857 15.567 12.5226 15.3021C12.2641 15.0417 11.9798 14.5403 11.9798 13.6C11.9798 13.2318 12.0695 12.9012 12.205 12.4021C12.2903 12.088 12.3937 11.7071 12.5043 11.2081M12.5043 11.2081L12.2602 11.154C12.3477 10.7589 12.0869 10.3557 11.6522 10.2669L11.7022 10.0219M12.5043 11.2081C12.6239 10.6679 12.2649 10.1369 11.7022 10.0219M11.2446 16.8929L11.1843 17.1651C11.1507 17.1391 11.1174 17.1124 11.0845 17.0849L11.2446 16.8929ZM11.2446 16.8929C11.3159 16.9523 11.389 17.0081 11.4635 17.0604L11.4887 16.947L11.2446 16.8929ZM8.52911 19.5354L8.58518 19.2824C8.60496 19.2929 8.62479 19.3033 8.64467 19.3137L8.52911 19.5354ZM8.52911 19.5354C8.45216 19.4953 8.37593 19.454 8.30046 19.4117L8.28503 19.4813L8.52911 19.5354ZM11.7022 10.0219L11.6522 10.2669C11.2147 10.1775 10.799 10.4474 10.7106 10.8461L8.77319 19.5895L8.70266 19.9078L8.41356 19.7571C5.73911 18.363 3.91634 15.6389 3.91634 12.5001C3.91634 7.93422 7.76895 4.25009 12.4997 4.25009C17.2304 4.25009 21.083 7.93422 21.083 12.5001C21.083 17.066 17.2304 20.7501 12.4997 20.7501C11.7898 20.7501 11.0996 20.6672 10.4392 20.5108M11.7022 10.0219L10.4392 20.5108M2.33301 12.5001C2.33301 7.12483 6.87506 2.75009 12.4997 2.75009C18.1242 2.75009 22.6663 7.12483 22.6663 12.5001C22.6663 17.8753 18.1242 22.2501 12.4997 22.2501C6.87506 22.2501 2.33301 17.8753 2.33301 12.5001Z" fill="#878787" stroke="#F9F8F3" stroke-width="0.5"/>
</g>
<defs>
<clipPath id="clip0_374_1783">
<rect width="25" height="24" fill="white" transform="translate(0 0.5)"/>
</clipPath>
</defs>
</svg>
