<svg width="21" height="20" viewBox="0 0 21 20" fill="none" xmlns="http://www.w3.org/2000/svg">
<path d="M8.19961 17.9539L8.2529 17.7133L9.00061 14.3387L9.08942 13.9379L9.40476 14.2008C10.064 14.7502 10.8902 14.9652 11.6973 14.951C12.584 14.9354 13.4811 14.6468 14.2337 14.1922C14.9851 13.7383 15.6445 13.087 16.0021 12.2961L16.0023 12.2956C16.3226 11.5913 16.4998 10.8144 16.4998 10C16.4998 6.83388 13.8232 4.25 10.4998 4.25C7.17637 4.25 4.4998 6.83388 4.4998 10C4.4998 10.8148 4.67714 11.5921 4.99785 12.2968C5.16962 12.6743 5.63683 12.8571 6.04517 12.6859L8.19961 17.9539ZM8.19961 17.9539L8.43935 18.0107M8.19961 17.9539L8.43935 18.0107M8.43935 18.0107C9.0997 18.1671 9.78987 18.25 10.4998 18.25C15.2305 18.25 19.0831 14.5659 19.0831 10C19.0831 5.43413 15.2305 1.75 10.4998 1.75C5.76907 1.75 1.91646 5.43413 1.91646 10C1.91646 13.1388 3.73923 15.8629 6.41368 17.257L6.70278 17.4077L6.77331 17.0894L8.71075 8.34599C8.79908 7.9473 9.21478 7.67745 9.65227 7.76679L9.7023 7.52185L9.65228 7.7668C10.087 7.85557 10.3478 8.2588 10.2603 8.65392C10.1511 9.14659 10.0497 9.52014 9.96462 9.83373C9.93925 9.9272 9.91532 10.0153 9.89306 10.0997C9.79691 10.4643 9.7299 10.7657 9.7299 11.0999C9.7299 12.0943 10.0325 12.6631 10.3453 12.9781L10.3453 12.9782C10.6669 13.3019 11.1197 13.461 11.6679 13.4513M8.43935 18.0107L6.67938 11.5996M6.67938 11.5996L6.45184 11.7032C6.21506 11.1829 6.08313 10.6073 6.08313 10C6.08313 7.64327 8.07026 5.75 10.4998 5.75C12.9293 5.75 14.9165 7.64327 14.9165 10C14.9165 11.1599 14.462 12.2754 13.3827 12.9274C12.841 13.2547 12.2243 13.4415 11.6679 13.4513M6.67938 11.5996L6.45184 11.7032C6.62094 12.0747 6.44871 12.5165 6.04521 12.6859L6.67938 11.5996ZM11.6679 13.4513L11.6635 13.2013M11.6679 13.4513C11.6679 13.4513 11.668 13.4513 11.668 13.4513L11.6635 13.2013M11.6635 13.2013C12.1707 13.1924 12.7448 13.0207 13.2534 12.7134L11.6635 13.2013ZM0.33313 10C0.33313 4.62474 4.87518 0.25 10.4998 0.25C16.1244 0.25 20.6665 4.62474 20.6665 10C20.6665 15.3752 16.1244 19.75 10.4998 19.75C4.87518 19.75 0.33313 15.3752 0.33313 10Z" fill="white" stroke="#303030" stroke-width="0.5"/>
</svg>
