<svg width="25" height="24" viewBox="0 0 25 24" fill="none" xmlns="http://www.w3.org/2000/svg">
<g clip-path="url(#clip0_370_216)">
<path d="M13.2716 22.9219L13.0892 23.0095L13.0838 23.0102L13.0718 23.0119L13.0331 23.0173L13.0144 23.0263L13.0139 23.026L12.996 23.0205C12.9783 23.0151 12.9594 23.0113 12.9398 23.0096L12.7572 22.9219C12.6432 22.8672 12.5148 22.899 12.4373 22.9825L12.4077 23.0143L12.3906 23.0543L12.3846 23.0683L12.3674 23.1085L12.3649 23.1521L12.3303 23.75H0.25V0.25H24.75V23.75H13.6984L13.6638 23.1521L13.6628 23.1336L13.659 23.1155C13.6376 23.0127 13.557 22.9209 13.439 22.8993L13.3994 22.8921L13.3595 22.8977L13.3451 22.8997L13.3066 22.9051L13.2716 22.9219Z" stroke="#303030" stroke-width="0.5"/>
<path d="M13.2915 19.9381V20.2198L13.5712 20.1863C17.798 19.6803 21.0831 16.2156 21.0831 12C21.0831 7.43413 17.2305 3.75 12.4998 3.75C7.76907 3.75 3.91646 7.43413 3.91646 12C3.91646 16.2156 7.20157 19.6803 11.4284 20.1863L11.7081 20.2198V19.9381V14V13.75H11.4581H9.3748C8.92786 13.75 8.58313 13.4047 8.58313 13C8.58313 12.5953 8.92786 12.25 9.3748 12.25H11.4581H11.7081V12V10C11.7081 8.49074 12.9855 7.25 14.5831 7.25H15.104C15.5509 7.25 15.8956 7.59531 15.8956 8C15.8956 8.40469 15.5509 8.75 15.104 8.75H14.5831C13.8795 8.75 13.2915 9.30013 13.2915 10V12V12.25H13.5415H15.6248C16.0718 12.25 16.4165 12.5953 16.4165 13C16.4165 13.4047 16.0718 13.75 15.6248 13.75H13.5415H13.2915V14V19.9381ZM22.6665 12C22.6665 17.3752 18.1244 21.75 12.4998 21.75C6.87518 21.75 2.33313 17.3752 2.33313 12C2.33313 6.62474 6.87518 2.25 12.4998 2.25C18.1244 2.25 22.6665 6.62474 22.6665 12Z" fill="white" stroke="#303030" stroke-width="0.5"/>
</g>
<defs>
<clipPath id="clip0_370_216">
<rect width="25" height="24" fill="white"/>
</clipPath>
</defs>
</svg>
