<svg width="25" height="24" viewBox="0 0 25 24" fill="none" xmlns="http://www.w3.org/2000/svg">
<g clip-path="url(#clip0_370_222)">
<path d="M13.2716 22.9219L13.0892 23.0095L13.0838 23.0102L13.0718 23.0119L13.0331 23.0173L13.0144 23.0263L13.0139 23.026L12.996 23.0205C12.9783 23.0151 12.9594 23.0113 12.9398 23.0096L12.7572 22.9219C12.6432 22.8672 12.5148 22.899 12.4373 22.9825L12.4077 23.0143L12.3906 23.0543L12.3846 23.0683L12.3674 23.1085L12.3649 23.1521L12.3303 23.75H0.25V0.25H24.75V23.75H13.6984L13.6638 23.1521L13.6628 23.1336L13.659 23.1155C13.6376 23.0127 13.557 22.9209 13.439 22.8993L13.3994 22.8921L13.3595 22.8977L13.3451 22.8997L13.3066 22.9051L13.2716 22.9219Z" stroke="#303030" stroke-width="0.5"/>
<path d="M16.6667 3.25C19.4148 3.25 21.625 5.38617 21.625 8V16C21.625 18.6138 19.4148 20.75 16.6667 20.75H8.33333C5.58521 20.75 3.375 18.6138 3.375 16V8C3.375 5.38617 5.58521 3.25 8.33333 3.25H16.6667ZM16.6667 4.75H8.33333C6.47909 4.75 4.95833 6.19556 4.95833 8V16C4.95833 17.8045 6.4791 19.25 8.33333 19.25H16.6667C18.521 19.25 20.0417 17.8045 20.0417 16V8C20.0417 6.19556 18.521 4.75 16.6667 4.75ZM12.5 8.25C14.6728 8.25 16.4167 9.93845 16.4167 12C16.4167 14.0615 14.6728 15.75 12.5 15.75C10.3272 15.75 8.58333 14.0615 8.58333 12C8.58333 9.93845 10.3272 8.25 12.5 8.25ZM12.5 9.75C11.221 9.75 10.1667 10.7478 10.1667 12C10.1667 13.2522 11.221 14.25 12.5 14.25C13.779 14.25 14.8333 13.2522 14.8333 12C14.8333 10.7478 13.779 9.75 12.5 9.75ZM17.1875 6.75C17.6345 6.75 17.9792 7.09531 17.9792 7.5C17.9792 7.90469 17.6345 8.25 17.1875 8.25C16.7405 8.25 16.3958 7.90469 16.3958 7.5C16.3958 7.09531 16.7405 6.75 17.1875 6.75Z" fill="white" stroke="#303030" stroke-width="0.5"/>
</g>
<defs>
<clipPath id="clip0_370_222">
<rect width="25" height="24" fill="white"/>
</clipPath>
</defs>
</svg>
